<svg width="18" height="18" viewBox="0 0 18 18" fill="none" xmlns="http://www.w3.org/2000/svg">
<path d="M12.6394 8.25159V12.6383C12.6394 12.7868 12.5804 12.9292 12.4754 13.0342C12.3703 13.1393 12.2279 13.1983 12.0794 13.1983H5.91938C5.77085 13.1983 5.62842 13.1393 5.5234 13.0342C5.41837 12.9292 5.35938 12.7868 5.35938 12.6383V8.25159" stroke="#FFC800" stroke-linecap="round" stroke-linejoin="round"/>
<path d="M12.4165 4.79858H5.58602C5.52229 4.79857 5.46046 4.82027 5.41071 4.86011C5.36097 4.89995 5.32628 4.95554 5.31236 5.01773L4.80127 7.31858C4.80127 7.54137 4.88977 7.75502 5.0473 7.91255C5.20483 8.07008 5.41849 8.15858 5.64127 8.15858C5.86405 8.15858 6.07771 8.07008 6.23524 7.91255C6.39277 7.75502 6.48127 7.54137 6.48127 7.31858C6.48127 7.54137 6.56977 7.75502 6.7273 7.91255C6.88483 8.07008 7.09849 8.15858 7.32127 8.15858C7.54405 8.15858 7.75771 8.07008 7.91524 7.91255C8.07277 7.75502 8.16127 7.54137 8.16127 7.31858C8.16127 7.54137 8.24977 7.75502 8.4073 7.91255C8.56483 8.07008 8.77849 8.15858 9.00127 8.15858C9.22405 8.15858 9.43771 8.07008 9.59524 7.91255C9.75277 7.75502 9.84127 7.54137 9.84127 7.31858C9.84127 7.54137 9.92977 7.75502 10.0873 7.91255C10.2448 8.07008 10.4585 8.15858 10.6813 8.15858C10.9041 8.15858 11.1177 8.07008 11.2752 7.91255C11.4328 7.75502 11.5213 7.54137 11.5213 7.31858C11.5213 7.54137 11.6098 7.75502 11.7673 7.91255C11.9248 8.07008 12.1385 8.15858 12.3613 8.15858C12.5841 8.15858 12.7977 8.07008 12.9552 7.91255C13.1128 7.75502 13.2013 7.54137 13.2013 7.31858L12.6898 5.01773C12.676 4.95554 12.6414 4.89991 12.5917 4.86006C12.542 4.82021 12.4802 4.79852 12.4165 4.79858Z" stroke="#FFC800" stroke-linecap="round" stroke-linejoin="round"/>
<path d="M10.1218 10.679C10.1218 10.3819 10.0038 10.097 9.7938 9.887C9.58376 9.67696 9.29888 9.55896 9.00184 9.55896C8.70479 9.55896 8.41992 9.67696 8.20988 9.887C7.99984 10.097 7.88184 10.3819 7.88184 10.679V13.199H10.1218V10.679Z" stroke="#FFC800" stroke-linecap="round" stroke-linejoin="round"/>
<circle cx="9" cy="9" r="8.5" stroke="#FFC800"/>
</svg>
