<svg width="24" height="24" viewBox="0 0 24 24" fill="none" xmlns="http://www.w3.org/2000/svg">
<path d="M6.85742 18.4285H15.3611C15.6648 18.4285 15.9587 18.321 16.1908 18.1251C16.4228 17.9291 16.578 17.6572 16.6288 17.3578L18.8891 4.06989C18.9401 3.77057 19.0953 3.49895 19.3274 3.30313C19.5594 3.10732 19.8532 2.99994 20.1568 3H21.0002" stroke="#101316" stroke-width="1.3" stroke-linecap="round" stroke-linejoin="round"/>
<path d="M8.32138 20.3571C8.38494 20.3571 8.44707 20.3759 8.49992 20.4112C8.55277 20.4465 8.59396 20.4967 8.61829 20.5555C8.64261 20.6142 8.64898 20.6788 8.63657 20.7412C8.62417 20.8035 8.59357 20.8608 8.54862 20.9058C8.50368 20.9507 8.44641 20.9813 8.38407 20.9937C8.32173 21.0061 8.25711 20.9998 8.19839 20.9754C8.13967 20.9511 8.08947 20.9099 8.05416 20.8571C8.01885 20.8042 8 20.7421 8 20.6785C8 20.5932 8.03386 20.5115 8.09413 20.4512C8.1544 20.3909 8.23614 20.3571 8.32138 20.3571Z" fill="#0D3A93" stroke="#101316" stroke-width="1.3" stroke-linecap="round" stroke-linejoin="round"/>
<path d="M14.8932 20.3571C14.9567 20.3571 15.0188 20.3759 15.0717 20.4112C15.1245 20.4465 15.1657 20.4967 15.1901 20.5555C15.2144 20.6142 15.2208 20.6788 15.2084 20.7412C15.196 20.8035 15.1653 20.8608 15.1204 20.9058C15.0755 20.9507 15.0182 20.9813 14.9558 20.9937C14.8935 21.0061 14.8289 20.9998 14.7702 20.9754C14.7114 20.9511 14.6613 20.9099 14.6259 20.8571C14.5906 20.8042 14.5718 20.7421 14.5718 20.6785C14.5718 20.5932 14.6056 20.5115 14.6659 20.4512C14.7262 20.3909 14.8079 20.3571 14.8932 20.3571" stroke="#101316" stroke-width="1.3" stroke-linecap="round" stroke-linejoin="round"/>
<path d="M8.32138 20.3571C8.38494 20.3571 8.44707 20.3759 8.49992 20.4112C8.55277 20.4465 8.59396 20.4967 8.61829 20.5555C8.64261 20.6142 8.64897 20.6788 8.63657 20.7412C8.62417 20.8035 8.59357 20.8608 8.54862 20.9058C8.50368 20.9507 8.44641 20.9813 8.38407 20.9937C8.32173 21.0061 8.25711 20.9998 8.19839 20.9754C8.13967 20.9511 8.08947 20.9099 8.05416 20.8571C8.01885 20.8042 8 20.7421 8 20.6785C8 20.5932 8.03386 20.5115 8.09413 20.4512C8.1544 20.3909 8.23614 20.3571 8.32138 20.3571" stroke="#101316" stroke-width="1.3" stroke-linecap="round" stroke-linejoin="round"/>
<path d="M17.1029 14.5707H6.75634C6.18299 14.5706 5.6261 14.3789 5.17417 14.026C4.72224 13.6731 4.4012 13.1792 4.26207 12.6229L3.01922 7.65067C2.9955 7.55585 2.99371 7.45686 3.01399 7.36124C3.03427 7.26562 3.07608 7.17589 3.13624 7.09885C3.1964 7.02182 3.27333 6.95952 3.36118 6.91669C3.44903 6.87386 3.54548 6.85163 3.64321 6.85168H18.4152" stroke="#101316" stroke-width="1.3" stroke-linecap="round" stroke-linejoin="round"/>
<path d="M6.85742 9.42688V11.3555" stroke="#101316" stroke-width="1.3" stroke-linecap="round" stroke-linejoin="round"/>
<path d="M10.7146 9.42688V11.3555" stroke="#101316" stroke-width="1.3" stroke-linecap="round" stroke-linejoin="round"/>
<path d="M14.5735 9.42566V11.3542" stroke="#101316" stroke-width="1.3" stroke-linecap="round" stroke-linejoin="round"/>
</svg>
