<svg width="18" height="18" viewBox="0 0 18 18" fill="none" xmlns="http://www.w3.org/2000/svg">
<circle cx="9" cy="9" r="8.5" stroke="#FF7800"/>
<path d="M4.90039 11.8415V11.8416C4.90051 12.494 5.15972 13.1196 5.62102 13.5809C6.08231 14.0422 6.70793 14.3014 7.3603 14.3015H7.36049C8.01286 14.3014 8.63847 14.0422 9.09976 13.5809C9.56106 13.1196 9.82027 12.494 9.82039 11.8416V11.8415V11.5615C9.82039 11.2485 9.94471 10.9484 10.166 10.7271C10.3873 10.5058 10.6874 10.3815 11.0004 10.3815H11.5604C12.2871 10.3815 12.984 10.0928 13.4979 9.57896C14.0117 9.06511 14.3004 8.36818 14.3004 7.64149C14.3004 6.9148 14.0117 6.21787 13.4979 5.70402C12.984 5.19017 12.2871 4.90149 11.5604 4.90149H8.76039C7.73665 4.90149 6.75485 5.30817 6.03096 6.03206C5.30707 6.75595 4.90039 7.73775 4.90039 8.76149V11.8415Z" stroke="#FF7800" stroke-linecap="round" stroke-linejoin="round"/>
<path d="M6.521 11.8412C6.521 12.064 6.6095 12.2777 6.76703 12.4352C6.92456 12.5927 7.13821 12.6812 7.361 12.6812C7.58378 12.6812 7.79744 12.5927 7.95497 12.4352C8.1125 12.2777 8.201 12.064 8.201 11.8412C8.201 11.6184 8.1125 11.4048 7.95497 11.2473C7.79744 11.0897 7.58378 11.0012 7.361 11.0012C7.13821 11.0012 6.92456 11.0897 6.76703 11.2473C6.6095 11.4048 6.521 11.6184 6.521 11.8412Z" stroke="#FF7800" stroke-linecap="round" stroke-linejoin="round"/>
<path d="M11.561 6.521H8.761C8.16691 6.521 7.59716 6.757 7.17708 7.17708C6.757 7.59716 6.521 8.16691 6.521 8.761V9.321C6.521 9.46952 6.58 9.61196 6.68502 9.71698C6.79004 9.822 6.93247 9.881 7.081 9.881C7.22952 9.881 7.37196 9.822 7.47698 9.71698C7.582 9.61196 7.641 9.46952 7.641 9.321C7.641 9.17247 7.7 9.03004 7.80502 8.92502C7.91004 8.82 8.05248 8.761 8.201 8.761H11.561C11.858 8.761 12.1429 8.643 12.353 8.43296C12.563 8.22292 12.681 7.93804 12.681 7.641C12.681 7.34395 12.563 7.05908 12.353 6.84904C12.1429 6.639 11.858 6.521 11.561 6.521Z" stroke="#FF7800" stroke-linecap="round" stroke-linejoin="round"/>
</svg>
