<svg width="16" height="16" viewBox="0 0 16 16" fill="none" xmlns="http://www.w3.org/2000/svg">
<path d="M11.2355 7.33618V11.2354C11.2355 11.3675 11.1831 11.4941 11.0897 11.5874C10.9964 11.6808 10.8698 11.7332 10.7377 11.7332H5.26218C5.13016 11.7332 5.00355 11.6808 4.9102 11.5874C4.81685 11.4941 4.7644 11.3675 4.7644 11.2354V7.33618" stroke="#FFC800" stroke-width="0.8" stroke-linecap="round" stroke-linejoin="round"/>
<path d="M11.0357 4.26648H4.96415C4.90751 4.26647 4.85255 4.28576 4.80833 4.32117C4.76411 4.35658 4.73328 4.406 4.72091 4.46128L4.2666 6.50648C4.2666 6.70451 4.34527 6.89443 4.4853 7.03445C4.62532 7.17448 4.81524 7.25315 5.01327 7.25315C5.2113 7.25315 5.40121 7.17448 5.54124 7.03445C5.68127 6.89443 5.75993 6.70451 5.75993 6.50648C5.75993 6.70451 5.8386 6.89443 5.97863 7.03445C6.11866 7.17448 6.30857 7.25315 6.5066 7.25315C6.70463 7.25315 6.89455 7.17448 7.03457 7.03445C7.1746 6.89443 7.25327 6.70451 7.25327 6.50648C7.25327 6.70451 7.33193 6.89443 7.47196 7.03445C7.61199 7.17448 7.80191 7.25315 7.99993 7.25315C8.19796 7.25315 8.38788 7.17448 8.52791 7.03445C8.66793 6.89443 8.7466 6.70451 8.7466 6.50648C8.7466 6.70451 8.82527 6.89443 8.9653 7.03445C9.10532 7.17448 9.29524 7.25315 9.49327 7.25315C9.6913 7.25315 9.88121 7.17448 10.0212 7.03445C10.1613 6.89443 10.2399 6.70451 10.2399 6.50648C10.2399 6.70451 10.3186 6.89443 10.4586 7.03445C10.5987 7.17448 10.7886 7.25315 10.9866 7.25315C11.1846 7.25315 11.3745 7.17448 11.5146 7.03445C11.6546 6.89443 11.7333 6.70451 11.7333 6.50648L11.2786 4.46128C11.2664 4.40599 11.2356 4.35655 11.1915 4.32113C11.1473 4.2857 11.0923 4.26642 11.0357 4.26648Z" stroke="#FFC800" stroke-width="0.8" stroke-linecap="round" stroke-linejoin="round"/>
<path d="M8.99575 9.49311C8.99575 9.22908 8.89086 8.97585 8.70416 8.78915C8.51746 8.60245 8.26423 8.49756 8.00019 8.49756C7.73616 8.49756 7.48293 8.60245 7.29623 8.78915C7.10953 8.97585 7.00464 9.22908 7.00464 9.49311V11.7331H8.99575V9.49311Z" stroke="#FFC800" stroke-width="0.8" stroke-linecap="round" stroke-linejoin="round"/>
<circle cx="8" cy="8" r="7.66667" stroke="#FFC800" stroke-width="0.666667"/>
</svg>
