<svg width="16" height="16" viewBox="0 0 16 16" fill="none" xmlns="http://www.w3.org/2000/svg">
<path d="M8.06982 12.131C7.74935 12.147 7.4338 12.0525 7.18385 11.8656C6.93391 11.6787 6.76721 11.4126 6.71584 11.1184L6.26854 6.75495C6.181 5.89836 7.01223 5.1637 8.06982 5.1637C9.127 5.1637 9.95823 5.89913 9.87069 6.75495L9.42339 11.1184C9.3721 11.4125 9.2055 11.6786 8.95562 11.8656C8.70574 12.0525 8.39024 12.147 8.06982 12.131V12.131Z" stroke="#8EB826" stroke-width="0.8" stroke-linecap="round" stroke-linejoin="round"/>
<path d="M8.07007 5.16411V3.7334" stroke="#8EB826" stroke-width="0.8" stroke-linecap="round" stroke-linejoin="round"/>
<path d="M6.50407 5.89934C6.2999 5.7979 6.07197 5.74473 5.84042 5.74451C5.4637 5.75807 5.10462 5.89626 4.82803 6.13413C4.55144 6.37199 4.37558 6.69385 4.33219 7.04158C4.14024 8.5251 4.37617 10.0293 5.01585 11.4004C5.09524 11.61 5.24145 11.7922 5.43505 11.9228C5.62865 12.0534 5.86047 12.1262 6.09971 12.1316C6.27456 12.1295 6.44652 12.0899 6.60204 12.0156C6.75757 11.9414 6.89242 11.8347 6.99597 11.7039" stroke="#8EB826" stroke-width="0.8" stroke-linecap="round" stroke-linejoin="round"/>
<path d="M9.60129 5.8525C9.77793 5.78117 9.96851 5.74441 10.1611 5.74451V5.74451C10.5378 5.75805 10.8968 5.89619 11.1734 6.13398C11.45 6.37177 11.6259 6.69354 11.6694 7.0412C11.8613 8.52471 11.6254 10.0289 10.9857 11.4C10.9063 11.6096 10.7601 11.7918 10.5665 11.9224C10.3729 12.053 10.1411 12.1258 9.90185 12.1312C9.74365 12.13 9.58753 12.0976 9.4438 12.0363C9.30008 11.9749 9.17202 11.8858 9.06812 11.7751" stroke="#8EB826" stroke-width="0.8" stroke-linecap="round" stroke-linejoin="round"/>
<circle cx="8" cy="8" r="7.66667" stroke="#8EB826" stroke-width="0.666667"/>
</svg>
