<svg width="16" height="16" viewBox="0 0 16 16" fill="none" xmlns="http://www.w3.org/2000/svg">
<path d="M8.00073 3.20007V6.40008" stroke="#55C3F0" stroke-width="0.8" stroke-linecap="round" stroke-linejoin="round"/>
<path d="M9.55095 3.84033L8.00045 5.12033L6.44995 3.84033" stroke="#55C3F0" stroke-width="0.8" stroke-linecap="round" stroke-linejoin="round"/>
<path d="M3.97217 5.6001L6.65763 7.2001" stroke="#55C3F0" stroke-width="0.8" stroke-linecap="round" stroke-linejoin="round"/>
<path d="M5.28439 4.53406L5.58332 6.55987L3.73389 7.30569" stroke="#55C3F0" stroke-width="0.8" stroke-linecap="round" stroke-linejoin="round"/>
<path d="M3.97217 10.4001L6.65763 8.80005" stroke="#55C3F0" stroke-width="0.8" stroke-linecap="round" stroke-linejoin="round"/>
<path d="M3.73389 8.69421L5.58332 9.44003L5.28439 11.4658" stroke="#55C3F0" stroke-width="0.8" stroke-linecap="round" stroke-linejoin="round"/>
<path d="M8.00073 12.8001V9.6001" stroke="#55C3F0" stroke-width="0.8" stroke-linecap="round" stroke-linejoin="round"/>
<path d="M6.44995 12.1604L8.00045 10.8804L9.55095 12.1604" stroke="#55C3F0" stroke-width="0.8" stroke-linecap="round" stroke-linejoin="round"/>
<path d="M12.0287 10.4001L9.34326 8.80005" stroke="#55C3F0" stroke-width="0.8" stroke-linecap="round" stroke-linejoin="round"/>
<path d="M10.7164 11.4658L10.4175 9.44003L12.2669 8.69421" stroke="#55C3F0" stroke-width="0.8" stroke-linecap="round" stroke-linejoin="round"/>
<path d="M12.0287 5.6001L9.34326 7.2001" stroke="#55C3F0" stroke-width="0.8" stroke-linecap="round" stroke-linejoin="round"/>
<path d="M12.2669 7.30569L10.4175 6.55987L10.7164 4.53406" stroke="#55C3F0" stroke-width="0.8" stroke-linecap="round" stroke-linejoin="round"/>
<path d="M7.99992 6.3999L6.65698 7.1999V8.79991L7.99992 9.59991L9.34286 8.79991V7.1999L7.99992 6.3999Z" stroke="#55C3F0" stroke-width="0.8" stroke-linecap="round" stroke-linejoin="round"/>
<circle cx="8" cy="8" r="7.66667" stroke="#55C3F0" stroke-width="0.666667"/>
</svg>
