<svg width="18" height="18" viewBox="0 0 18 18" fill="none" xmlns="http://www.w3.org/2000/svg">
<path d="M8.99902 3.59839V7.19839" stroke="#55C3F0" stroke-linecap="round" stroke-linejoin="round"/>
<path d="M10.743 4.31909L8.99871 5.75909L7.25439 4.31909" stroke="#55C3F0" stroke-linecap="round" stroke-linejoin="round"/>
<path d="M4.46826 6.29883L7.48941 8.09883" stroke="#55C3F0" stroke-linecap="round" stroke-linejoin="round"/>
<path d="M5.94451 5.09912L6.28081 7.37816L4.2002 8.21721" stroke="#55C3F0" stroke-linecap="round" stroke-linejoin="round"/>
<path d="M4.46826 11.698L7.48941 9.89795" stroke="#55C3F0" stroke-linecap="round" stroke-linejoin="round"/>
<path d="M4.2002 9.7793L6.28081 10.6183L5.94451 12.8974" stroke="#55C3F0" stroke-linecap="round" stroke-linejoin="round"/>
<path d="M8.99902 14.3988V10.7988" stroke="#55C3F0" stroke-linecap="round" stroke-linejoin="round"/>
<path d="M7.25439 13.6791L8.99871 12.2391L10.743 13.6791" stroke="#55C3F0" stroke-linecap="round" stroke-linejoin="round"/>
<path d="M13.5319 11.698L10.5107 9.89795" stroke="#55C3F0" stroke-linecap="round" stroke-linejoin="round"/>
<path d="M12.0555 12.8974L11.7192 10.6183L13.7999 9.7793" stroke="#55C3F0" stroke-linecap="round" stroke-linejoin="round"/>
<path d="M13.5319 6.29883L10.5107 8.09883" stroke="#55C3F0" stroke-linecap="round" stroke-linejoin="round"/>
<path d="M13.7999 8.21721L11.7192 7.37816L12.0555 5.09912" stroke="#55C3F0" stroke-linecap="round" stroke-linejoin="round"/>
<path d="M8.99811 7.19861L7.4873 8.09861V9.89861L8.99811 10.7986L10.5089 9.89861V8.09861L8.99811 7.19861Z" stroke="#55C3F0" stroke-linecap="round" stroke-linejoin="round"/>
<circle cx="9" cy="9" r="8.5" stroke="#55C3F0"/>
</svg>
