<svg width="16" height="16" viewBox="0 0 16 16" fill="none" xmlns="http://www.w3.org/2000/svg">
<circle cx="8" cy="8" r="7.66667" stroke="#FF7800" stroke-width="0.666667"/>
<path d="M4.3998 10.5247V10.5248C4.39991 11.0929 4.62564 11.6377 5.02734 12.0394C5.42905 12.4411 5.97385 12.6669 6.54195 12.667H6.5421C7.1102 12.6669 7.655 12.4411 8.05671 12.0394C8.45842 11.6377 8.68414 11.0929 8.68425 10.5248V10.5247V10.2758C8.68425 9.98588 8.79944 9.70778 9.00448 9.50275C9.20952 9.29771 9.48761 9.18252 9.77758 9.18252H10.2754C10.9095 9.18252 11.5177 8.9306 11.9661 8.48217C12.4146 8.03375 12.6665 7.42557 12.6665 6.7914C12.6665 6.15724 12.4146 5.54905 11.9661 5.10063C11.5177 4.65221 10.9095 4.40029 10.2754 4.40029H7.78647C6.88827 4.40029 6.02686 4.7571 5.39174 5.39222C4.75661 6.02735 4.3998 6.88876 4.3998 7.78696V10.5247Z" stroke="#FF7800" stroke-width="0.8" stroke-linecap="round" stroke-linejoin="round"/>
<path d="M5.79565 10.5246C5.79565 10.7226 5.87432 10.9126 6.01435 11.0526C6.15438 11.1926 6.34429 11.2713 6.54232 11.2713C6.74035 11.2713 6.93027 11.1926 7.07029 11.0526C7.21032 10.9126 7.28899 10.7226 7.28899 10.5246C7.28899 10.3266 7.21032 10.1367 7.07029 9.99665C6.93027 9.85662 6.74035 9.77795 6.54232 9.77795C6.34429 9.77795 6.15438 9.85662 6.01435 9.99665C5.87432 10.1367 5.79565 10.3266 5.79565 10.5246Z" stroke="#FF7800" stroke-width="0.8" stroke-linecap="round" stroke-linejoin="round"/>
<path d="M10.2757 5.79553H7.78677C7.25869 5.79553 6.75224 6.00531 6.37884 6.37872C6.00543 6.75212 5.79565 7.25857 5.79565 7.78664V8.28442C5.79565 8.41644 5.8481 8.54305 5.94145 8.6364C6.0348 8.72975 6.16141 8.7822 6.29343 8.7822C6.42545 8.7822 6.55206 8.72975 6.64541 8.6364C6.73877 8.54305 6.79121 8.41644 6.79121 8.28442C6.79121 8.1524 6.84365 8.02579 6.93701 7.93244C7.03036 7.83909 7.15697 7.78664 7.28899 7.78664H10.2757C10.5397 7.78664 10.7929 7.68175 10.9796 7.49505C11.1663 7.30835 11.2712 7.05513 11.2712 6.79109C11.2712 6.52705 11.1663 6.27383 10.9796 6.08712C10.7929 5.90042 10.5397 5.79553 10.2757 5.79553Z" stroke="#FF7800" stroke-width="0.8" stroke-linecap="round" stroke-linejoin="round"/>
</svg>
