<svg width="18" height="22" viewBox="0 0 18 22" fill="none" xmlns="http://www.w3.org/2000/svg">
<path d="M8.98234 12.4864C13.4149 12.4864 16.9844 15.8106 17.3331 20.4381C17.3348 20.4681 17.3289 20.5514 17.3247 20.5639C17.2432 20.7806 17.0331 20.9356 16.7861 20.9356C16.5382 20.9356 16.3265 20.7797 16.2466 20.5614C16.2424 20.5497 16.2323 20.4947 16.2307 20.4781C15.7248 16.3422 12.9897 13.5806 8.99914 13.5806C5.01954 13.5806 2.2886 16.4072 1.77098 20.5256C1.76846 20.5506 1.74577 20.6389 1.73653 20.6572C1.6399 20.8622 1.44747 20.9997 1.22564 20.9997C0.97523 20.9997 0.761797 20.8431 0.677768 20.6239C0.675248 20.6164 0.671046 20.5922 0.667685 20.5664C0.666004 20.5414 0.666769 20.4614 0.668525 20.4414C0.671046 20.4114 0.673567 20.3806 0.676088 20.3506C1.08531 15.7939 4.59435 12.4864 8.98234 12.4864ZM8.99797 1C11.7239 1 13.954 3.19917 13.954 5.8875C13.954 8.57583 11.7239 10.775 8.99797 10.775C6.27207 10.775 4.04195 8.57583 4.04195 5.8875C4.04195 3.19917 6.27207 1 8.99797 1ZM8.99797 2.09333C6.88128 2.09333 5.15113 3.80083 5.15113 5.8875C5.15113 7.97417 6.88128 9.68167 8.99797 9.68167C11.1147 9.68167 12.8448 7.97417 12.8448 5.8875C12.8448 3.80083 11.1147 2.09333 8.99797 2.09333Z" fill="#0D3A93" stroke="#0D3A93" stroke-width="0.4"/>
</svg>
