<svg width="104" height="72" viewBox="0 0 104 72" fill="none" xmlns="http://www.w3.org/2000/svg">
<path d="M85.8566 36.7368C88.9431 36.7315 91.1369 38.1241 92.4597 40.9041C93.8847 43.9046 95.3204 46.8996 96.7507 49.9001C96.7937 49.9915 96.8313 50.0883 96.9174 50.2872C96.2237 49.642 95.6537 49.2226 95.0085 48.83C93.7341 48.0557 92.2876 47.932 90.8358 47.932C89.3356 47.9267 73.8602 47.9267 59.2343 47.9267L63.036 36.7422C74.3818 36.7368 85.3027 36.7368 85.8566 36.7368ZM103.477 66.0907C102.047 63.0902 100.617 60.0952 99.1865 57.0947C97.8637 54.3147 95.6699 52.9167 92.5834 52.9274C91.8252 52.9274 71.6287 52.9328 57.5298 52.9328L53.7281 64.1119C70.3435 64.1119 95.6215 64.1173 97.5626 64.1226C99.0145 64.128 100.461 64.2463 101.735 65.0206C102.375 65.4078 102.945 65.8326 103.644 66.4778C103.558 66.2789 103.521 66.1821 103.477 66.0907ZM64.7352 31.7468C72.8654 31.7522 82.0388 31.7522 84.2219 31.7576C85.6738 31.763 87.1202 31.8813 88.3946 32.6556C89.0345 33.0427 89.6045 33.4675 90.3035 34.1128C90.2175 33.9138 90.1798 33.8224 90.1368 33.7256C88.7065 30.7252 87.2761 27.7301 85.8458 24.7297C84.5231 21.9497 82.3292 20.5516 79.2427 20.5624C78.4307 20.5624 73.3117 20.5678 68.5368 20.5678L64.7352 31.7468Z" fill="#0D3A93"/>
<path d="M57.9925 0C56.1266 0.397909 54.6157 1.39268 53.594 2.89291C52.6584 4.26408 51.8787 5.80194 51.3087 7.36669C49.7063 11.7706 48.2384 16.2229 46.7328 20.6644C43.4688 30.2733 40.2049 39.8877 36.9464 49.502C35.9785 52.3573 35.0429 55.2179 34.0427 58.0624C33.306 60.1595 32.564 62.2512 31.7736 64.3268C31.7736 64.3322 31.7682 64.3376 31.7682 64.3429C31.6015 64.8161 31.4187 65.2893 31.2197 65.7464C31.1606 65.8969 31.1014 66.0529 31.0369 66.2034C30.3594 67.8972 29.327 69.3975 27.8267 70.5105C27.6815 70.6181 27.5364 70.7149 27.3912 70.8117C26.2458 71.5806 24.9338 71.9839 23.4282 71.9893C21.8312 71.9946 20.2288 71.9946 18.6318 71.9946C18.6157 71.9946 18.5942 71.9946 18.578 71.9946C16.9326 71.9946 15.2872 71.9946 13.6418 71.9946C13.502 71.9946 13.3676 71.9946 13.2278 71.9946C15.0936 71.5967 16.6046 70.6019 17.6263 69.1017C18.5619 67.7305 19.3416 66.1927 19.9116 64.6279C21.514 60.224 22.9819 55.7718 24.4875 51.3302C27.7514 41.7213 31.0154 32.1069 34.2739 22.4926C35.2418 19.6373 36.1774 16.7767 37.1776 13.9322C37.9143 11.8351 38.6563 9.74339 39.4467 7.66781C39.4467 7.66244 39.4521 7.65706 39.4521 7.65168C39.6188 7.17849 39.8016 6.7053 40.0006 6.24824C40.0597 6.09768 40.1189 5.94175 40.1834 5.79119C40.8609 4.09739 41.8933 2.59716 43.3936 1.48409C43.5387 1.37655 43.6786 1.27976 43.8291 1.18297C44.9744 0.41404 46.2865 0.0107543 47.7921 0.00537715C49.3945 0 50.9915 0 52.5885 0C52.6046 0 52.6261 0 52.6423 0C54.2877 0 55.9331 0 57.5785 0C57.7183 0 57.8581 0 57.9925 0ZM40.1727 0C38.5272 0 36.8818 0 35.2364 0C35.2203 0 35.1988 0 35.1827 0C33.5857 0 31.9833 0 30.3862 0.00537715C28.8806 0.00537715 27.5686 0.41404 26.4233 1.18297C26.2781 1.27976 26.1329 1.37655 25.9877 1.48409C24.4875 2.59716 23.4551 4.10276 22.7776 5.79119C22.7184 5.94175 22.6593 6.09768 22.5948 6.24824C22.3958 6.71068 22.213 7.17849 22.0463 7.65168C22.0517 7.65706 0 72 0 72C0.322629 72 0.854966 72 1.17759 72C1.19373 72 1.21523 72 1.23137 72C2.82838 72 4.43077 72 6.02778 71.9946C7.53338 71.9946 8.8454 71.586 9.99074 70.817C10.1359 70.7202 10.2811 70.6235 10.4263 70.5159C11.9265 69.4028 12.9589 67.8972 13.6364 66.2088C13.6956 66.0583 13.7547 65.9023 13.8193 65.7518C14.0182 65.2893 14.201 64.8215 14.3677 64.3483C14.3677 64.3429 14.3731 64.3376 14.3731 64.3322C15.1635 62.2566 15.9056 60.1595 16.6423 58.0678C17.6424 55.2233 18.578 52.3627 19.5459 49.5074C22.8045 39.8931 26.0684 30.2787 29.3323 20.6698C30.8433 16.2336 32.3059 11.776 33.9083 7.37207C34.4783 5.80732 35.2526 4.26945 36.1936 2.89828C37.2098 1.39806 38.7208 0.397909 40.5867 0C40.4523 0 40.3125 0 40.1727 0ZM74.8499 0C73.2045 0 71.5591 0 69.9137 0C69.8975 0 69.876 0 69.8599 0C68.2629 0 66.6605 0 65.0635 0.00537715C63.5579 0.00537715 62.2458 0.41404 61.1005 1.18297C60.9553 1.27976 60.8101 1.37655 60.665 1.48409C59.1647 2.59716 58.1323 4.10276 57.4548 5.79119C57.3956 5.94175 57.3365 6.09768 57.272 6.24824C57.073 6.71068 56.8902 7.17849 56.7235 7.65168C56.7235 7.65706 56.7181 7.66244 56.7181 7.66781C55.9277 9.74339 55.1856 11.8405 54.449 13.9322C53.4488 16.7767 52.5132 19.6373 51.5453 22.4926C48.2868 32.1069 45.0228 41.7213 41.7589 51.3302C40.2479 55.7664 38.7854 60.224 37.183 64.6279C36.613 66.1927 35.8387 67.7305 34.8977 69.1017C33.876 70.6019 32.365 71.5967 30.4992 71.9946C30.639 71.9946 30.7734 71.9946 30.9132 71.9946C32.5586 71.9946 34.204 71.9946 35.8494 71.9946C35.8656 71.9946 35.8871 71.9946 35.9032 71.9946C37.5002 71.9946 39.1026 71.9946 40.6996 71.9893C42.2052 71.9893 43.5172 71.5806 44.6626 70.8117C44.8078 70.7149 44.9529 70.6181 45.0981 70.5105C46.5983 69.3975 47.6308 67.8919 48.3083 66.2034C48.3674 66.0529 48.4266 65.8969 48.4911 65.7464C48.6901 65.2839 48.8729 64.8161 49.0396 64.3429C49.0396 64.3376 49.0449 64.3322 49.0449 64.3268C49.8354 62.2512 50.5774 60.1541 51.3141 58.0624C52.3142 55.2179 53.2499 52.3573 54.2178 49.502C57.4763 39.8877 60.7402 30.2733 64.0042 20.6644C65.5151 16.2282 66.9777 11.7706 68.5801 7.36669C69.1501 5.80194 69.9244 4.26408 70.8654 2.89291C71.8871 1.39268 73.398 0.397909 75.2639 0C75.1295 0 74.9897 0 74.8499 0Z" fill="#0D3A93"/>
</svg>
