<svg width="18" height="16" viewBox="0 0 18 16" fill="none" xmlns="http://www.w3.org/2000/svg">
<path d="M8.99994 1C9.82593 1 10.5819 1.50244 11.1272 2.41449L16.5385 11.4672C17.0825 12.3761 17.1478 13.2537 16.7225 13.938C16.2965 14.623 15.4518 15 14.3419 15H3.65802C2.5487 15 1.70338 14.623 1.27805 13.938C0.852058 13.2537 0.917391 12.3768 1.46138 11.4672L6.87264 2.41449C7.41863 1.50244 8.17395 1 8.99994 1ZM8.99927 1.82298C8.50328 1.82298 8.01795 2.17613 7.63463 2.81845L2.22337 11.8699C1.83804 12.5148 1.77005 13.1019 2.03271 13.5234C2.2947 13.9449 2.87136 14.1777 3.65735 14.1777H14.3419C15.1279 14.1777 15.7045 13.9449 15.9672 13.5234C16.2298 13.1013 16.1618 12.5141 15.7758 11.8699L10.3646 2.81845C9.98126 2.17613 9.49593 1.82298 8.99927 1.82298ZM9.00014 11.1367C9.23947 11.1367 9.43347 11.3192 9.43347 11.5444V11.9835C9.43347 12.2087 9.23947 12.3912 9.00014 12.3912C8.76081 12.3912 8.56681 12.2087 8.56681 11.9835V11.5444C8.56681 11.3192 8.76081 11.1367 9.00014 11.1367ZM9.00014 4.86397C9.23947 4.86397 9.43347 5.04651 9.43347 5.2717V9.47439C9.43347 9.69958 9.23947 9.88212 9.00014 9.88212C8.76081 9.88212 8.56681 9.69958 8.56681 9.47439V5.2717C8.56681 5.04651 8.76081 4.86397 9.00014 4.86397Z" fill="#E00016" stroke="#E00016" stroke-width="0.4"/>
</svg>
